<?xml version="1.0" standalone="no"?>
<!DOCTYPE svg PUBLIC "-//W3C//DTD SVG 20010904//EN"
 "http://www.w3.org/TR/2001/REC-SVG-20010904/DTD/svg10.dtd">
<svg version="1.0" xmlns="http://www.w3.org/2000/svg"
 width="336.000000pt" height="336.000000pt" viewBox="0 0 336.000000 336.000000"
 preserveAspectRatio="xMidYMid meet">

<g transform="translate(0.000000,336.000000) scale(0.100000,-0.100000)"
fill="#000000" stroke="none">
<path d="M1551 3194 c-129 -34 -150 -52 -599 -499 l-424 -421 99 4 c80 3 115
0 178 -17 l78 -22 341 339 c364 361 365 362 462 362 48 0 130 -38 166 -76 59
-63 75 -170 39 -251 -11 -23 -61 -85 -112 -137 l-94 -96 -120 120 c-66 66
-125 120 -130 120 -6 0 -52 -42 -103 -93 l-92 -92 345 -345 345 -345 97 98 98
97 -122 122 -122 123 107 110 c118 121 162 190 187 296 63 267 -101 533 -371
604 -72 19 -182 18 -253 -1z"  fill="darkred"/>
<path d="M2285 2718 c0 -69 -6 -127 -19 -177 l-19 -73 334 -333 c286 -285 337
-341 352 -382 54 -149 -57 -304 -218 -304 -79 0 -119 22 -227 128 l-98 97 122
123 123 123 -98 98 -97 97 -342 -342 -342 -342 74 -78 c41 -43 86 -86 99 -97
l23 -19 122 122 121 121 105 -106 c64 -64 129 -119 165 -139 291 -164 663 0
740 326 28 119 13 234 -46 352 -27 53 -91 122 -453 485 l-422 423 1 -103z" fill="darkred"/>
<path d="M500 2157 c-36 -12 -86 -34 -112 -50 -101 -59 -193 -182 -224 -301
-19 -69 -18 -200 2 -267 36 -123 53 -143 497 -587 l422 -422 1 128 c0 94 5
138 18 172 l17 44 -330 331 c-354 354 -370 375 -371 470 0 109 75 201 184 226
44 10 62 9 111 -5 51 -15 70 -29 162 -119 l104 -101 -123 -123 -123 -123 95
-95 96 -96 344 341 345 340 -97 97 -98 98 -122 -122 -123 -122 -115 112 c-63
62 -138 124 -166 139 -115 62 -275 76 -394 35z" fill="darkred"/>
<path d="M1332 1508 l-92 -93 122 -122 123 -123 -87 -87 c-172 -176 -218 -267
-218 -439 0 -194 107 -365 281 -449 148 -71 302 -70 449 1 70 34 101 62 498
458 l423 421 -113 0 c-81 0 -131 6 -176 19 l-64 19 -331 -330 c-183 -182 -348
-339 -367 -349 -50 -26 -143 -24 -196 4 -99 51 -149 158 -124 263 12 48 24 65
119 162 l105 108 123 -123 123 -123 97 98 98 97 -340 340 c-187 187 -344 340
-350 340 -6 0 -52 -42 -103 -92z" fill="darkred"/>
</g>
</svg>
